<?xml version="1.0" encoding="UTF-8"?>
<svg xmlns="http://www.w3.org/2000/svg" viewBox="501.90 331.50 92.10 84.40">
  <path fill="#52796F" d="M587.3,346.1l-6.4-0.7l0.9-3.1l3.1-2.6l0.6-2.3l-1.8-2.9l-31.9,1.2l-23.3,0.7l-23.6,0.3l1.5,6.9   l0.1,8.5l1.4,10.9l0.3,38.2l2.1,1.6l3-1.2l2.9,1.2l0.4,10.1l25.2-0.2l26.8-0.8l0.9-1.9l-0.3-3.8l-1.7-3.1l1.5-1.4l-1.4-2.2l0.7-2.4   l1.1-5.9l2.7-2.3l-0.8-2.2l4-5.6l2.5-1.1l-0.1-1.7l-0.5-1.7l2.9-5.8l2.5-1.1l0.2-3.3l2.1-1.4l0.9-4.1l-1.4-4l4.2-2.4l0.3-2.1   l1.2-4.2l0.9-3.1L587.3,346.1z"/>
</svg>
