<?xml version="1.0" encoding="UTF-8"?>
<svg xmlns="http://www.w3.org/2000/svg" viewBox="664.70 352.80 99.40 103.90">
  <path fill="#52796F" d="M750.2,444.2l-5.6-0.7l-1.4,1.6l1.6,4.7l-0.3,3.9l-2.2-0.6l-0.2-3h-5.2l-5.3,0.7l-32.3,1.9l-7.7-0.3   l-1.4-1.2l-2.5-4.3l-0.8-3.3l-1.6-0.9l-0.5-0.5l0.9-2.2l-0.4-5.5l-1.6-4.5l0.8-4.9l1.7-4.8l-0.2-2.5l-1.9-0.7l-0.4-3.2l-2.8-3.5   l-1.9-6.2l-1.5-7l-1.7-4.8l-3.8-16l-3.5-8l-0.8-5.3l0.1-2.3l3.3-0.3l13.6-1.6l18.6-2l6.3-1.1l0.5,1.4l-2.2,0.9l-0.9,2.2l0.4,2   l1.4,1.6l4.3,2.7l3.2-0.1l3.2,4.7l0.6,1.6l2.3,2.8l0.5,1.7l4.7,1.8l3,2.2l2.3,3l2.3,1.3l2,1.8l1.4,2.7l2.1,1.9l4.1,1.8l2.7,6   l1.7,5.1l2.8,0.7l2.1,1.9l2,5.7l2.9,1.6l1.7-0.8l0.4,1.2l-3.3,6.2l0.5,2.6l-1.5,4.2l-2.3,10l0.8,6.3L750.2,444.2z"/>
</svg>
