<?xml version="1.0" encoding="UTF-8"?>
<svg xmlns="http://www.w3.org/2000/svg" viewBox="546.90 557.40 34.37 36.30">
  <path fill="#52796F" d="M569.9,561.4c0,0,0.1,0,0.1,0c0.4,0,0.8,0.1,1.3,0.2c0.6,0.1,0.8,0.8,1.3,0.9c0.5,0.2,0.6,0.6,1,0.9  c0.1,0.1,0.2,0.3,0.3,0.3c0.7,0.6-0.8,1.2,0.9,0.8c0,0,1.3,0.5,1.5,0.5c0.6,0.1,1.3,0.1,1.8,0.2c0.6,0.1-0.6,0.9-0.9,1.4  c-0.3,0.4-0.1,1.1-0.1,1.6c0,0.6-0.1,1-0.3,1.4c-0.1,0.5-0.5,0.8-0.8,1c-0.3,0.3-0.9,0.5-1.4,0.6c-0.6,0.1-0.6,0.5-1.5,0.5  c-0.4,0-0.5,1-0.6,1.3c-0.4,0.6-1.1,0-1.4,0.8c-0.2,0.5-0.5,0.5-0.9,0.8c-0.4,0.3-0.9,0.5-1.3,0.6c-0.6,0.3-1,0.5-1.8,0.5  c-0.3,0-0.9,0.9-1,1c-0.4,0.4-0.5,0.7-0.9,0.9c-0.2,0.1-1.2-0.1-1.6,0c-0.1,0,0,1.4,0,1.6c0,0.2-0.8,0.6-0.9,0.7  c-0.1,0.2,0.3,1.2,0.3,1.6c0,0.5,0,1.1-0.1,1.5c-0.1,0.5-0.1,1-0.8,1c-0.7,0,0.4,0.8,0.5,0.9c0.2,0.2,0.2,1.1,0.3,1.4  c0.2,0.7-0.4,0.9-0.4,1.5c0,0-1,0.6-1.1,0.6c-0.4,0.2-0.7,0.6-1,0.8c-0.5,0.4-0.6,0.6-1,0.9c-0.4,0.3-1,0.3-1.6,0.4  c-0.6,0.1-1.1,0.2-1.8,0.2c-0.4,0-0.9-0.6-1.1-0.8c-0.5-0.5-0.7,0.2-1-0.7c0-0.1-0.4-0.8-0.5-1.2c-0.2-0.6-0.1-0.9-0.3-1.4  c-0.1-0.4-0.5-0.6-0.6-1c-0.2-0.5-0.1-1.1-0.4-1.6c-0.3-0.5-0.9-0.3-0.9-1.2c0-0.7,0.3-0.8,0.6-1.3c0.2-0.3,0.4-0.9,0.5-1.3  c0.1-0.3,0.6-0.9,0.8-1.3c0-0.1-0.1-0.4-0.1-0.6l-3.1-2.4c0.6-0.9,0.7-0.6,1.6,0c0.5,0.3,0.9,0.3,1.5,0.2c0.5-0.1,0.4,1.1,0.4,1.5  c0,0.6,0.7-0.1,0.8-0.4c0.2-0.8,0-0.8-0.2-1.4c-0.1-0.2,1.1,0.5,0.8-0.5c-0.2-0.5-1,0-0.8-0.8c0.1-0.3,1.9,0.1,2,0.1  c0.5,0.1,0.9-0.6,1.5-0.6c0.5,0,1.2-0.2,1.9-0.2c0.5,0,1.4-0.2,1.8-0.3c0.8-0.2,1.1-0.2,1.6-0.5c0.4-0.2-0.2-1.4-0.3-1.5  c-0.2-0.5,1.7,0,1.8,0c0.8,0.1,0.9-0.7,1-1c0.2-0.7,0.3-0.9,1-1.2c0.8-0.3,1-0.8,1-1.5c0-1,0.4-1.3,0.6-2.1c0.1-0.6-0.1-0.8,0.4-1.4  c0.6-0.6,0.9-0.8,1.3-1.4c0.3-0.5,0.3-0.9,0.3-1.5c0-0.6,0.2-0.6-0.4-1"/>
</svg>
