<?xml version="1.0" encoding="UTF-8"?>
<svg xmlns="http://www.w3.org/2000/svg" viewBox="615.60 207.20 57.60 96.60">
  <path fill="#52796F" d="M622.9,216.1l1.5,1l1.1-0.3l2.1-1.9l2.5-1.8l14.3-1.1l18.4-1.8l1.6,15.5l4.9,42.6l-0.6,2.9l1.3,1.6   l0.2,1.3l-2.3,1.6l-3.6,1.7l-3.2,0.4l-0.5,4.8l-4.7,3.6l-2.9,4l0.2,2.4l-0.5,1.4h-3.5l-1.4-1.7l-5.2,3l0.2,3.1l-0.9,0.2l-0.5-0.9   L639,296l-3.6,1.5l-1.4,2.9l-1.2-0.6l-1.6-1.8l-4.4,0.5l-5.7,1l-2.5,1.3v-2.6l0.4-4.7l2.3-2.9l1.8-3.9l2.7-4.2l-0.5-5.8l-1.8-3.1   l-0.3-3.2l0.8-5.3l-0.7-7.1l-0.9-12.6l-2.5-30.1L622.9,216.1z"/>
</svg>
