<?xml version="1.0" encoding="UTF-8"?>
<svg xmlns="http://www.w3.org/2000/svg" viewBox="593.10 264.80 131.40 70.20">
  <path fill="#52796F" d="M607.2,331.8l12.6-0.7l0.1-4.1h4.3l30.4-3.2l45.1-4.3l5.6-3.6l3.9-2.1l0.1-1.9l6-7.8l4.1-3.6l2.1-2.4   l-3.3-2l-2.5-2.7l-3-3.8l-0.5-2.2l-2.6-1.4l-0.9-1.9l-0.2-6.1l-2.6-2l-1.9-1.1l-0.5-2.3l-1.3,0.2l-2,1.2l-2.5,2.7l-1.9-1.7   l-2.5-0.5l-2.4,1.4h-2.3l-1.8-2l-5.6-0.1l-1.8-4.5l-2.9-1.5l-2.1,0.8l-4.2,0.2l-0.5,2.1l1.2,1.5l0.3,2.1l-2.8,2l-3.8,1.8l-2.6,0.4   l-0.5,4.5l-4.9,3.6l-2.6,3.7l0.2,2.2l-0.9,2.3l-4.5-0.1l-1.3-1.3l-3.9,2.2l0.2,3.3l-2.4,0.6l-0.8-1.4l-1.7-1.2l-2.7,1.1l-1.8,3.5   l-2.2-1l-1.4-1.6l-3.7,0.4l-5.6,1l-2.8,1.3l-1.2,3.4l-1,1l1.5,3.7l-4.2,1.4l-1.9,1.4l-0.4,2.2l1.2,2.4v2.2l-1.6,0.4l-6.1-2.5   l-2.3,0.9l-2,1.4l-0.8,1.8l1.7,2.4l-0.9,1.8l-0.1,3.3l-2.4,1.3l-2.1,1.7L607.2,331.8z"/>
</svg>
