<?xml version="1.0" encoding="UTF-8"?>
<svg xmlns="http://www.w3.org/2000/svg" viewBox="840.20 140.00 67.50 38.60">
  <path fill="#52796F" d="M887.5,172.5l-0.5-2.3l0.8-1.5l2.9-1.5l0.8,3.1l-0.5,1.8l-2.4,1.5v1l1.9-1.5l3.9-4.5l3.9-1.9l4.2-1.5   l-0.3-2.4l-1-2.9l-1.9-2.4l-1.8-0.8l-2.1,0.2l-0.5,0.5l1,1.3l1.5-0.8l2.1,1.6l0.8,2.7l-1.8,1.8l-2.3,1l-3.6-0.5l-3.9-6l-2.3-2.6   h-1.8l-1.1,0.8l-1.9-2.6l0.3-1.5l2.4-5.2l-2.9-4.4l-3.7,1.8l-1.8,2.9l-18.3,4.7l-13.8,2.5l-0.6,10.6l0.7,4.9l22-4.8l11.2-2.8l2,1.6   l3.4,4.3l2.9,4.7L887.5,172.5z M900,173.9l2.2-0.7l0.5-1.7l1,0.1l1,2.3l-1.3,0.5l-3.9,0.1L900,173.9z M890.6,174.7l2.3-2.6h1.6   l1.8,1.5l-2.4,1l-2.2,1L890.6,174.7z"/>
</svg>
