<?xml version="1.0" encoding="UTF-8"?>
<svg xmlns="http://www.w3.org/2000/svg" viewBox="741.60 103.60 132.90 103.60">
  <path fill="#52796F" d="M843.4,200l0.5-2.7l-0.2-2.4l-3-1.5l-6.5-2l-6-2.6l-0.6-0.4l-2.7-0.3l-2-1.5l-2.1-5.9l-3.3-0.5   l-2.4-2.4l-38.4,8.1l-31.6,6l-0.5-6.5l1.6-1.2l1.3-1.1l1-1.6l1.8-1.1l1.9-1.8l0.5-1.6l2.1-2.7l1.1-1l-0.2-1l-1.3-3.1l-1.8-0.2   l-1.9-6.1l2.9-1.8l4.4-1.5l4-1.3l3.2-0.5l6.3-0.2l1.9,1.3l1.6,0.2l2.1-1.3l2.6-1.1l5.2-0.5l2.1-1.8l1.8-3.2l1.6-1.9h2.1l1.9-1.1   l0.2-2.3l-1.5-2.1l-0.3-1.5l1.1-2.1v-1.5h-1.8l-1.8-0.8l-0.8-1.1l-0.2-2.6l5.8-5.5l0.6-0.8l1.5-2.9l2.9-4.5l2.7-3.7l2.1-2.4   l2.4-1.8l3.1-1.2l5.5-1.3l3.2,0.2l4.5-1.5l7.4-2.2l0.7,4.9l2.4,6.5l0.8,5l-1,4.2l2.6,4.5l0.8,2l-0.9,3.2l3.7,1.7l2.7,10.2v5.8   l-0.6,10.9l0.8,5.4l0.7,3.6l1.5,7.3v8.1l-1.1,2.3l2.1,2.7l0.5,0.9l-1.9,1.8l0.3,1.3l1.3-0.3l1.5-1.3l2.3-2.6l1.1-0.6l1.6,0.6   l2.3,0.2l7.9-3.9l2.9-2.7l1.3-1.5l4.2,1.6l-3.4,3.6l-3.9,2.9l-7.1,5.3l-2.6,1l-5.8,1.9l-4,1.1l-1-0.4L843.4,200z"/>
</svg>
