<?xml version="1.0" encoding="UTF-8"?>
<svg xmlns="http://www.w3.org/2000/svg" viewBox="55.20 3.40 122.10 90.80">
  <path fill="#52796F" d="M74.5,67.7l-2.3-4.3l-4.1-0.7l-0.4-2.4l-2.5-0.6l-2.9-0.5l-1.8,1l-2.3-2.9l0.3-2.9l2.7-0.3l1.6-4   L60.2,49l0.2-3.7l4.4-0.6L62.1,42l-1.5-7.1l0.6-2.9v-7.9l-1.8-3.2l2.3-9.4l2.1,0.5l2.4,2.9l2.7,2.6l3.2,1.9l4.5,2.1l3.1,0.6   l2.9,1.5l3.4,1l2.3-0.2V22l1.3-1.1l2.1-1.3l0.3,1.1l0.3,1.8L90,23l-0.3,2.1l1.8,1.5l1.1,2.4l0.6,1.9l1.5-0.2l0.2-1.3l-1-1.3   l-0.5-3.2l0.8-1.8l-0.6-1.5V19l1.8-3.6l-1.1-2.6L91.9,8l0.3-0.8l1.4-0.8L98,7.9l9.7,2.7l8.6,1.9l20,5.7l23,5.7l15,3.5l-4.8,17.6   L165,65.8L161.6,82l-0.4,9.2l0,0l-12.9-3.7L133,84l-14.5,0.3l-1.1-1.5l-5.7,2.1l-3.9-0.4l-2.6-1.8l-1.7,0.7l-4.2-0.2l-1.7-1.3   l-5.2-1.8l-1.2-0.2l-4.8-1.4L84.6,80l-5.7-0.2l-4.6-3.3L74.5,67.7z M84.1,12.3l2-0.2l0.5,1.4l1.5-1.6h2.3l0.8,1.5l-1.5,1.7l0.6,0.8   l-0.7,2l-1.4,0.4c0,0-0.9,0.1-0.9-0.2c0-0.3,1.5-2.6,1.5-2.6l-1.7-0.6l-0.3,1.5L86.1,17l-1.5-2.3L84.1,12.3z"/>
</svg>
