<?xml version="1.0" encoding="UTF-8"?>
<svg xmlns="http://www.w3.org/2000/svg" viewBox="6.00 430.50 215.30 161.40">
  <path fill="#52796F" d="M161.1,453.7l-0.3,85.4l1.6,1l3.1,0.2l1.5-1.1h2.6l0.2,2.9l7,6.8l0.5,2.6l3.4-1.9l0.6-0.2l0.3-3.1   l1.5-1.6l1.1-0.2l1.9-1.5l3.1,2.1l0.6,2.9l1.9,1.1l1.1,2.4l3.9,1.8l3.4,6l2.7,3.9l2.3,2.7l1.5,3.7l5,1.8l5.2,2.1l1,4.4l0.5,3.1   l-1,3.4l-1.8,2.3l-1.6-0.8l-1.5-3.1l-2.7-1.5l-1.8-1.1l-0.8,0.8l1.5,2.7l0.2,3.7l-1.1,0.5l-1.9-1.9l-2.1-1.3l0.5,1.6l1.3,1.8   l-0.8,0.8c0,0-0.8-0.3-1.3-1c-0.5-0.6-2.1-3.4-2.1-3.4l-1-2.3c0,0-0.3,1.3-1,1c-0.6-0.3-1.3-1.5-1.3-1.5l1.8-1.9l-1.5-1.5v-5h-0.8   l-0.8,3.4l-1.1,0.5l-1-3.7l-0.6-3.7l-0.8-0.5l0.3,5.7v1.1l-1.5-1.3l-3.6-6l-2.1-0.5l-0.6-3.7l-1.6-2.9l-1.6-1.1v-2.3l2.1-1.3   l-0.5-0.3l-2.6,0.6l-3.4-2.4l-2.6-2.9l-4.8-2.6l-4-2.6l1.3-3.2V542l-1.8,1.6l-2.9,1.1l-3.7-1.1l-5.7-2.4h-5.5l-0.6,0.5l-6.5-3.9   l-2.1-0.3l-2.7-5.8l-3.6,0.3l-3.6,1.5l0.5,4.5l1.1-2.9l1,0.3l-1.5,4.4l3.2-2.7l0.6,1.6l-3.9,4.4l-1.3-0.3l-0.5-1.9l-1.3-0.8   l-1.3,1.1l-2.7-1.8l-3.1,2.1l-1.8,2.1l-3.4,2.1l-4.7-0.2l-0.5-2.1l3.7-0.6v-1.3l-2.3-0.6l1-2.4l2.3-3.9v-1.8l0.2-0.8l4.4-2.3l1,1.3   h2.7l-1.3-2.6l-3.7-0.3l-5,2.7l-2.4,3.4l-1.8,2.6l-1.1,2.3l-4.2,1.5l-3.1,2.6l-0.3,1.6l2.3,1l0.8,2.1l-2.7,3.2l-6.5,4.2l-7.8,4.2   l-2.1,1.1l-5.3,1.1l-5.3,2.3l1.8,1.3l-1.5,1.5l-0.5,1.1l-2.7-1l-3.2,0.2l-0.8,2.3h-1l0.3-2.4l-3.6,1.3l-2.9,1l-3.4-1.3l-2.9,1.9   h-3.2l-2.1,1.3l-1.6,0.8l-2.1-0.3l-2.6-1.1l-2.3,0.6l-1,1l-1.6-1.1v-1.9l3.1-1.3l6.3,0.6l4.4-1.6l2.1-2.1l2.9-0.6l1.8-0.8l2.7,0.2   l1.6,1.3l1-0.3l2.3-2.7l3.1-1l3.4-0.6l1.3-0.3l0.6,0.5h0.8l1.3-3.7l4-1.5l1.9-3.7l2.3-4.5l1.6-1.5l0.3-2.6l-1.6,1.3l-3.4,0.6   l-0.6-2.4l-1.3-0.3l-1,1l-0.2,2.9l-1.5-0.2l-1.5-5.8l-1.3,1.3l-1.1-0.5l-0.3-1.9l-4,0.2l-2.1,1.1l-2.6-0.3l1.5-1.5l0.5-2.6L64,534   l1.5-1l1.3-0.2l-0.6-1.8v-4.4l-1-1l-0.8,1.5h-6.1l-1.5-1.3l-0.6-3.9l-2.1-3.6v-1l2.1-0.8l0.2-2.1l1.1-1.1l-0.8-0.5l-1.3,0.5   l-1.1-2.7l1-5l4.5-3.2l2.6-1.6l1.9-3.7l2.7-1.3l2.6,1.1l0.3,2.4l2.4-0.3l3.2-2.4l1.6,0.6l1,0.6h1.6l2.3-1.3l0.8-4.4   c0,0,0.3-2.9,1-3.4c0.6-0.5,1-1,1-1l-1.1-1.9l-2.6,0.8l-3.2,0.8l-1.9-0.5l-3.6-1.8l-5-0.2l-3.6-3.7l0.5-3.9l0.6-2.4l-2.1-1.8   l-1.9-3.7l0.5-0.8l6.8-0.5h2.1l1,1h0.6l-0.2-1.6l3.9-0.6l2.6,0.3l1.5,1.1l-1.5,2.1l-0.5,1.5l2.7,1.6l5,1.8l1.8-1l-2.3-4.4l-1-3.2   l1-0.8l-3.4-1.9l-0.5-1.1l0.5-1.6l-0.8-3.9l-2.9-4.7l-2.4-4.2l2.9-1.9h3.2l1.8,0.6l4.2-0.2l3.7-3.6l1.1-3.1l3.7-2.4l1.6,1l2.7-0.6   l3.7-2.1l1.1-0.2l1,0.8l4.5-0.2l2.7-3.1h1.1l3.6,2.4l1.9,2.1l-0.5,1.1l0.6,1.1l1.6-1.6l3.9,0.3l0.3,3.7l1.9,1.5l7.1,0.6l6.3,4.2   l1.5-1l5.2,2.6l2.1-0.6l1.9-0.8l4.8,1.9L161.1,453.7z M46,482.6l2.1,5.3l-0.2,1l-2.9-0.3l-1.8-4l-1.8-1.5H39l-0.2-2.6l1.8-2.4   l1.1,2.4l1.5,1.5L46,482.6z M43.4,516.1l3.7,0.8l3.7,1l0.8,1l-1.6,3.7l-3.1-0.2l-3.4-3.6L43.4,516.1z M22.7,502l1.1,2.6l1.1,1.6   l-1.1,0.8l-2.1-3.1V502H22.7z M9,575.1l3.4-2.3l3.4-1l2.6,0.3l0.5,1.6l1.9,0.5l1.9-1.9l-0.3-1.6l2.7-0.6l2.9,2.6l-1.1,1.8l-4.4,1.1   l-2.7-0.5l-3.7-1.1l-4.4,1.5l-1.6,0.3L9,575.1z M57.9,570.6l1.6,1.9l2.1-1.6l-1.5-1.3L57.9,570.6z M60.8,573.6l1.1-2.3l2.1,0.3   l-0.8,1.9L60.8,573.6L60.8,573.6z M84.4,571.7l1.5,1.8l1-1.1l-0.8-1.9L84.4,571.7z M93.2,559.2l1.1,5.8l2.9,0.8l5-2.9l4.4-2.6   l-1.6-2.4l0.5-2.4l-2.1,1.3l-2.9-0.8l1.6-1.1l1.9,0.8l3.9-1.8l0.5-1.5l-2.4-0.8l0.8-1.9l-2.7,1.9l-4.7,3.6l-4.8,2.9L93.2,559.2z    M135.5,539.4l2.4-1.5l-1-1.8l-1.8,1L135.5,539.4z"/>
</svg>
