<?xml version="1.0" encoding="UTF-8"?>
<svg xmlns="http://www.w3.org/2000/svg" viewBox="131.80 292.90 124.10 144.30">
  <path fill="#52796F" d="M135.1,389.7l-0.3,1.5l0.5,1l18.9,10.7l12.1,7.6l14.7,8.6l16.8,10l12.3,2.4l25.4,2.7l6-39.6l7-53.1   l4.4-31l-24.6-3.6l-60.7-11l-0.2,1.1l-2.6,16.5l-2.1,3.8l-2.8-0.2l-1.2-2.6l-2.6-0.4l-1.2-1.1l-1.1,0.1l-2.1,1.7l-0.3,6.8l-0.3,1.5   l-0.5,12.5l-1.5,2.4l-0.4,3.3l2.8,5l1.1,5.5l0.7,1.1l1.1,0.9l-0.4,2.4l-1.7,1.2l-3.4,1.6l-1.6,1.8l-1.6,3.6l-0.5,4.9l-3,2.9   l-1.9,0.9l-0.1,5.8l-0.6,1.6l0.5,0.8l3.9,0.4l-0.9,3l-1.7,2.4l-3.7,0.4L135.1,389.7z"/>
</svg>
