<?xml version="1.0" encoding="UTF-8"?>
<svg xmlns="http://www.w3.org/2000/svg" viewBox="468.10 177.30 109.90 74.30">
  <path fill="#52796F" d="M556.8,183.6l2.1,2.1l0.3,0.7l-2,3l0.3,4l2.6,4.1l3.1,1.6l2.4,0.3l0.9,1.8l0.2,2.4l2.5,1l0.9,1.1   l0.5,1.6l3.8,3.3l0.6,1.9l-0.7,3l-1.7,3.7l-0.6,2.4l-2.1,1.6l-1.6,0.5l-5.7,1.5L561,230l0.8,1.8l1.7,1.5l-0.2,3.5l-1.9,1.4   l-0.7,1.8v2.4l-1.4,0.4l-1.7,1.4l-0.5,1.7l0.4,1.7l-1.3,1l-2.3-2.7l-1.4-2.8l-8.3,0.8l-10,0.6l-49.2,1.2l-1.6-4.3l-0.4-6.7   l-1.4-4.2l-0.7-5.2l-2.2-3.7l-1-4.6l-2.7-7.8l-1.1-5.6l-1.4-1.9l-1.3-2.9l1.7-3.8l1.2-6.1l-2.7-2.2l-0.3-2.4l0.7-2.4l1.8-0.3   l61.1-0.6l21.2-0.7L556.8,183.6z"/>
</svg>
