<?xml version="1.0" encoding="UTF-8"?>
<svg xmlns="http://www.w3.org/2000/svg" viewBox="138.20 24.60 109.70 173.50">
  <path fill="#52796F" d="M175.3,27.6L170.5,45L166,65.9l-3.4,16.2l-0.4,9.7l1.2,4.4l3.5,2.7l-0.2,3.9l-3.9,4.4l-4.5,6.6   l-0.9,2.9l-1.2,1.1l-1.8,0.8l-4.3,5.3l-0.4,3.1l-0.4,1.1l0.6,1l2.6-0.1l1.1,2.3l-2.4,5.8l-1.2,4.2l-8.8,35.3l20.7,4.5l39.5,7.9   l34.8,6.1l4.9-29.2l3.8-24.1l-2.7-2.4l-0.4-2.6l-0.8-1.1l-2.1,1l-0.7,2.6l-3.2,0.5l-3.9-1.6l-3.8,0.1l-2.5,0.7l-3.4-1.5l-2.4,0.2   l-2.4,2l-2-1.1l-0.7-4l0.7-2.9l-2.5-2.9l-3.3-2.6l-2.7-13.1l-0.1-4.7l-0.3-0.1l-0.2,0.4l-5.1,3.5l-1.7-0.2l-2.9-3.4l-0.2-3.1   l7-17.1l-0.4-1.9l-3.4-1.2l-0.6-1.2l-2.6-3.5L191,70.4l-3.2-1.5l-2-5l1.3-4.6l-3.2-7.6l4.4-21.5L175.3,27.6z"/>
</svg>
