<?xml version="1.0" encoding="UTF-8"?>
<svg xmlns="http://www.w3.org/2000/svg" viewBox="513.60 409.90 104.60 92.70">
  <path fill="#52796F" d="M526.9,485.9l8.1-0.3l10.3,3.6l6.5,1.1l3.7-1.5l3.2,1.1l3.2,1l0.8-2.1l-3.2-1.1l-2.6,0.5l-2.7-1.6   l0.8-1.5l3.1-1l1.8,1.5l1.8-1l3.2,0.6l1.5,2.4l0.3,2.3l4.5,0.3l1.8,1.8l-0.8,1.6l-1.3,0.8l1.6,1.6l8.4,3.6l3.6-1.3l1-2.4l2.6-0.6   l1.8-1.5l1.3,1l0.8,2.9l-2.3,0.8l0.6,0.6l3.4-1.3l2.3-3.4l0.8-0.5l-2.1-0.3l0.8-1.6l-0.2-1.5l2.1-0.5l1.1-1.3l0.6,0.8l0.6,3.1   l4.2,0.6l4,1.9l1,1.5h2.9l1.1,1l2.3-3.1V493h-1.3l-3.4-2.7l-5.8-0.8l-3.2-2.3l1.1-2.7l2.3,0.3l0.2-0.6l-1.8-1v-0.5h3.2l1.8-3.1   l-1.3-1.9l-0.3-2.7l-1.5,0.2l-1.9,2.1l-0.6,2.6l-3.1-0.6l-1-1.8l1.8-1.9l1.9-1.7l-2.2-6.5l-3.4-3.4l1-7.3l-0.2-0.5l-1.3,0.2   l-33.1,1.4l-0.8-2.4l0.8-8.5l8.6-14.8l-0.9-2.6l1.4-0.4l0.4-2l-2.2-2l0.1-1.9l-2-4.5l-0.4-5.1l0.1-0.7l-26.4,0.8l-25.2,0.1l0.4,9.7   l0.7,9.5l0.5,3.7l2.6,4.5l0.9,4.4l4.3,6l0.3,3.1l0.6,0.8l-0.7,8.3l-2.8,4.6l1.2,2.4l-0.5,2.6l-0.8,7.3l-1.3,3l0.2,3.7L526.9,485.9z"/>
</svg>
