<?xml version="1.0" encoding="UTF-8"?>
<svg xmlns="http://www.w3.org/2000/svg" viewBox="459.80 49.80 120.50 133.70">
  <path fill="#52796F" d="M464.6,66.8l-0.6,3.9V81l1.6,5l1.9,3.3l0.5,9.9l1.8,13.4l1.8,7.3l0.4,6.4v5.3l-1.6,1.8l-1.8,1.3v1.5   l0.9,1.7l4.1,3.5l0.7,3.2v35.9l60.3-0.6l21.2-0.7l-0.5-6l-1.8-2.1l-7.2-4.6l-3.6-5.3l-3.4-0.9l-2-2.8h-3.2l-3.5-3.8l-0.5-7l0.1-3.9   l1.5-3l-0.7-2.7l-2.8-3.1l2.2-6.1l5.4-4l1.2-1.4l-0.2-8l0.2-3l2.6-3l3.8-2.9l1.3-0.2l4.5-5l1.8-0.8l2.3-3.9l2.4-3.6l3.1-2.6l4.8-2   l9.2-4.1l3.9-1.8l0.6-2.3l-4.4,0.4l-0.7,1.1h-0.6l-1.8-3.1l-8.9,0.3l-1,0.8h-1l-0.5-1.3l-0.8-1.8l-2.6,0.5l-3.2,3.2l-1.6,0.8h-3.1   l-2.6-1v-2.1l-1.3-0.2l-0.5,0.5l-2.6-1.3l-0.5-2.9l-1.5,0.5l-0.5,1l-2.4-0.5l-5.3-2.4l-3.9-2.6h-2.9l-1.3-1l-2.3,0.6l-1.1,1.1   l-0.3,1.3h-4.8v-2.1l-6.3-0.3l-0.3-1.5h-4.8l-1.6-1.6l-1.5-6.1l-0.8-5.5l-1.9-0.8l-2.3-0.5l-0.6,0.2l-0.3,8.2l-30.1,0L464.6,66.8z"/>
</svg>
