<?xml version="1.0" encoding="UTF-8"?>
<svg xmlns="http://www.w3.org/2000/svg" viewBox="819.60 186.90 29.70 60.00">
  <path fill="#52796F" d="M823.7,228.3l0.1-1.5l2.7-1.3l1.7-2.8l1.7-2.4l3.3-3.2v-1.2l-6.1-4.1l-1-2.7l-2.7-0.3l-0.1-0.9   l-0.7-2.2l2.2-1.1l0.2-2.9l-1.3-1.3l0.2-1.2l1.9-3.1V193l2.5-3.1l5.6,2.5l6.4,1.9l2.5,1.2l0.1,1.8l-0.5,2.7l0.4,4.5l-2.1,1.9   l-1.1,1l0.5,0.5l2.7-0.3l1.1-0.8l1.6,3.4l0.2,9.4l0.6,1.1l-1.1,5.5l-3.1,6.5l-2.7,4l-0.8,4.8l-2.1,2.4h-0.8l-0.3-2.7l0.8-1   l-0.2-1.5l-4-0.6l-4.8-2.3l-3.2-2.9l-1-2L823.7,228.3z"/>
</svg>
