<?xml version="1.0" encoding="UTF-8"?>
<svg xmlns="http://www.w3.org/2000/svg" viewBox="618.20 357.90 71.40 114.40">
  <path fill="#52796F" d="M628.5,466.4l0.6,0.2l1.3-2.7l1.5-4.4l2.3,0.6l3.1,6v1l-2.7,1.9l2.7,0.3l5.2-2.5l-0.3-7.6l-2.5-1.8   l-2-2l0.4-4l10.5-1.5l25.7-2.9l6.7-0.6l5.6,0.1l-0.5-2.2l-1.5-0.8l-0.9-1.1l1-2.6l-0.4-5.2l-1.6-4.5l0.8-5.1l1.7-4.8l-0.2-1.7   l-1.8-0.7l-0.5-3.6l-2.7-3.4l-2-6.5l-1.4-6.7l-1.8-5l-3.8-16l-3.5-7.9l-0.8-5.6l0.1-2.2l-9,0.8l-23.4,2.2l-12.2,0.8l-0.2,6.4   l0.2,16.7l-0.7,31l-0.3,14.1l2.8,18.8l1.6,14.7L628.5,466.4z"/>
</svg>
