<?xml version="1.0" encoding="UTF-8"?>
<svg xmlns="http://www.w3.org/2000/svg" viewBox="11.00 145.00 145.30 244.80">
  <path fill="#52796F" d="M122.7,385.9l-19.7-2.7l-10-1.5l-0.5-1.8v-9.4l-0.3-3.2l-2.6-4.2l-0.8-2.3l-3.9-4.2l-2.9-4.7l-2.7-0.2   l-3.2-0.8l-0.3-1l1.5-0.6l-0.6-3.2l-1.5-2.1l-4.8-0.8l-3.9-2.1l-1.1-2.3l-2.6-4.8l-2.9-3.1H57l-3.9-2.1l-4.5-1.8l-4.2-0.5l-2.4-2.7   l0.5-1.9l1.8-7.1l0.8-1.9v-2.4l-1.6-1l-0.5-2.9l-1.5-2.6l-3.4-5.8l-1.3-3.1l-1.5-4.7l-1.6-5.3l-3.2-4.4l-0.5-2.9l0.8-3.9h1.1   l2.1-1.6l1.1-3.6l-1-2.7l-2.7-0.5l-1.9-2.6l-2.1-3.7l-0.2-8.2l0.6-1.9l0.6-2.3l0.5-2.4l-5.7-6.3V236l0.3-0.5l0.3-3.2l-1.3-4   l-2.3-4.8l-2.7-4.5l-1.8-3.9l1-3.7l0.6-5.8l1.8-3.1l0.3-6.5l-1.1-3.6l-1.6-4.2L14,184l0.8-3.2l1.5-4.2l1.8-0.8l0.3-1.1l3.1-2.6   l5.2-11.8l0.2-7.4l1.7-4.9l38.7,11.8l25.6,6.6l-8,31.3l-8.7,33.1L88.8,250l42.2,62.3l17.1,26.1l-0.4,3.1l2.8,5.2l1.1,5.4l1,1.5   l0.7,0.6l-0.2,1.4l-1.4,1l-3.4,1.6l-1.9,2.1l-1.7,3.9l-0.5,4.7l-2.6,2.5l-2.3,1.1l-0.1,6.2l-0.6,1.9l1,1.7l3,0.3l-0.4,1.6l-1.4,2   l-3.9,0.6L122.7,385.9z M48.8,337l1.3,1.5l-0.2,1.3l-3.2-0.1l-0.6-1.2l-0.6-1.5L48.8,337z M50.7,337l1.2-0.6l3.6,2.1l3.1,1.2   l-0.9,0.6l-4.5-0.2l-1.6-1.6L50.7,337z M71.4,356.8l1.8,2.3l0.8,1l1.5,0.6l0.6-1.5l-1-1.8l-2.7-2l-1.1,0.2L71.4,356.8L71.4,356.8z    M70,365.5l1.8,3.2l1.2,1.9l-1.5,0.2l-1.3-1.2c0,0-0.7-1.5-0.7-1.9s0-2.2,0-2.2H70z"/>
</svg>
