<?xml version="1.0" encoding="UTF-8"?>
<svg xmlns="http://www.w3.org/2000/svg" viewBox="635.70 441.50 165.30 140.50">
  <path fill="#52796F" d="M750.2,445.2l-5.2-0.7l-0.7,0.8l1.5,4.4l-0.4,5.2l-4.1-1l-0.2-2.8H737l-5.3,0.7l-32.4,1.9l-8.2-0.3   l-1.7-1.7l-2.5-4.2H681l-6.6,0.5l-35.4,4.2l-0.3,2.8l1.6,1.6l2.9,2l0.3,8.4l3.3-0.6l6-2.1l6-0.5l4.4-0.6l7.6,1.8l8.1,3.9l1.6,1.5   l2.9,1.1l1.6,1.9l0.3,2.7l3.2-1.3h3.9l3.6-1.9l3.7-3.6l3.1,0.2l0.5-1.1l-0.8-1l0.2-1.9l4-0.8h2.6l2.9,1.5l4.2,1.5l2.4,3.7l2.7,1   l1.1,3.4l3.4,1.6l1.6,2.6l1.9,0.6l5.2,1.3l1.3,3.1l3,3.7v9.5l-1.5,4.7l0.3,2.7l1.3,4.8l1.8,4l0.8-0.5l1.5-4.5l-2.6-1l-0.3-0.6   l1.6-0.6l4.5,1l0.2,1.6l-3.2,5.5l-2.1,2.4l3.6,3.7l2.6,3.1l2.9,5.3l2.9,3.9l2.1,5l1.8,0.3l1.6-2.1l1.8,1.1l2.6,4l0.6,3.6l3.1,4.4   l0.8-1.3l3.9,0.3l3.6,2.3l3.4,5.2l0.8,3.4l0.3,2.9l1.1,1l1.3,0.5l2.4-1l1.5-1.6l3.9-0.2l3.1-1.5l2.7-3.2l-0.5-1.9l-0.3-2.4l0.6-1.9   l-0.3-1.9l2.4-1.3l0.3-3.4l-0.6-1.8l-0.5-12l-1.3-7.6l-4.5-8.2l-3.6-5.8l-2.6-5.3l-2.9-2.9L779,493l0.7-1.4l1.1-1.3l-1.6-2.9   l-4-3.7l-4.8-5.5l-3.7-6.3l-5.3-9.4l-3.7-9.7l-2.3-7.3L750.2,445.2z M767.9,577.9l2.4-0.6l1.3-0.2l1.5-2.3l2.3-1.6l1.3,0.5l1.7,0.3   l0.4,1.1l-3.5,1.2l-4.2,1.5l-2.3,1.2L767.9,577.9z M781.4,572.9l1.2,1.1l2.7-2.1l5.3-4.2l3.7-3.9l2.5-6.6l1-1.7l0.2-3.4l-0.7,0.5   l-1,2.8l-1.5,4.6l-3.2,5.3l-4.4,4.2l-3.4,1.9L781.4,572.9z"/>
</svg>
