<?xml version="1.0" encoding="UTF-8"?>
<svg xmlns="http://www.w3.org/2000/svg" viewBox="230.10 507.10 119.50 78.70">
  <path fill="#52796F" d="M233.1,519.3l1.9-3.6l2.3-0.3l0.3,0.8l-2.1,3.1H233.1z M243.3,515.6l6.1,2.6l2.1-0.3l1.6-3.9l-0.6-3.4   l-4.2-0.5l-4,1.8L243.3,515.6z M274,525.6l3.7,5.5l2.4-0.3l1.1-0.5l1.5,1.3l3.7-0.2l1-1.5l-2.9-1.8l-1.9-3.7l-2.1-3.6l-5.8,2.9   L274,525.6z M294.2,534.5l1.3-1.9l4.7,1l0.6-0.5l6.1,0.6l-0.3,1.3l-2.6,1.5l-4.4-0.3L294.2,534.5z M299.5,539.7l1.9,3.9l3.1-1.1   l0.3-1.6l-1.6-2.1l-3.7-0.3L299.5,539.7z M306.5,538.5l2.3-2.9l4.7,2.4l4.4,1.1l4.4,2.7v1.9l-3.6,1.8l-4.8,1l-2.4-1.5L306.5,538.5z    M323.1,554.1l1.6-1.3l3.4,1.6l7.6,3.6l3.4,2.1l1.6,2.4l1.9,4.4l4,2.6l-0.3,1.3l-3.9,3.2l-4.2,1.5l-1.5-0.6l-3.1,1.8l-2.4,3.2   l-2.3,2.9l-1.8-0.2l-3.6-2.6l-0.3-4.5l0.6-2.4l-1.6-5.7l-2.1-1.8l-0.2-2.6l2.3-1l2.1-3.1l0.5-1l-1.6-1.8L323.1,554.1z"/>
</svg>
