<?xml version="1.0" encoding="UTF-8"?>
<svg xmlns="http://www.w3.org/2000/svg" viewBox="553.00 195.10 74.80 129.50">
  <path fill="#52796F" d="M618.7,214.3l-0.8-2.6l-1.3-3.7l-1.6-1.8l-1.5-2.6l-0.4-5.5l-15.9,1.8l-17.4,1h-12.3l0.2,2.1l2.2,0.9   l1.1,1.4l0.4,1.4l3.9,3.4l0.7,2.4l-0.7,3.3l-1.7,3.7l-0.8,2.7l-2.4,1.9l-1.9,0.6l-5.2,1.3l-1.3,4.1l0.6,1.1l1.9,1.8l-0.2,4.3   l-2.1,1.6l-0.5,1.3v2.8l-1.8,0.6l-1.4,1.2l-0.4,1.2l0.4,2l-1.6,1.3l-0.9,2.8l0.3,3.9l2.3,7l7,7.6l5.7,3.7v4.4l0.7,1.2l6.6,0.6   l2.7,1.4l-0.7,3.5l-2.2,6.2l-0.8,3l2,3.7l6.4,5.3l4.8,0.8l2.2,5.1l2,3.4l-0.9,2.8l1.5,3.8l1.7,2.1l1.6-0.3l1-2.2l2.4-1.7l2.8-1   l6.1,2.5l0.5-0.2v-1.1l-1.2-2.7l0.4-2.8l2.4-1.6l3.4-1.2l-0.5-1.3l-0.8-2l1.2-1.3l1-2.7v-4l0.4-4.9l2.5-3l1.8-3.8l2.5-4l-0.5-5.3   l-1.8-3.2l-0.3-3.3l0.8-5.3l-0.7-7.2l-1.1-15.8l-1.4-15.3l-0.9-11.7L618.7,214.3z"/>
</svg>
