<?xml version="1.0" encoding="UTF-8"?>
<svg xmlns="http://www.w3.org/2000/svg" viewBox="754.50 227.00 85.50 46.50">
  <path fill="#52796F" d="M834.8,264.1l1.7-3.8l0.5-4.8l-6.3,1.1l-5.8,0.3l-3.8-16.8l-2.3-5.5l-1.5-4.6l-22.2,4.3l-37.6,7.6   l2,10.4l4.8-4.9l2.5-0.7l1.4-1.5l1.8-2.7l1.6,0.7l2.6-0.2l2.6-2.1l2-1.5l2.1-0.6l1.5,1.1l2.7,1.4l1.9,1.8l1.3,1.4l4.8,1.6l-0.6,2.9   l5.8,2.1l2.1-2.6l3.7,2.5l-2.1,3.3l-0.7,3.3l-1.8,2.6v2.1l0.3,0.8l2,1.3l3.4,1.1l4.3-0.1l3.1,1l2.1,0.3l1-2.1l-1.5-2.1v-1.8   l-2.4-2.1l-2.1-5.5l1.3-5.3l-0.2-2.1l-1.3-1.3c0,0,1.5-1.6,1.5-2.3c0-0.6,0.5-2.1,0.5-2.1l1.9-1.3l1.9-1.6l0.5,1l-1.5,1.6l-1.3,3.7   l0.3,1.1l1.8,0.3l0.5,5.5l-2.1,1l0.3,3.6l0.5-0.2l1.1-1.9l1.6,1.8l-1.6,1.3l-0.3,3.4l2.6,3.4l3.9,0.5l1.6-0.8l3.2,4.2l1,0.4   L834.8,264.1z M820.3,264.3l1.1,2.5l0.2,1.8l1.1,1.9c0,0,0.9-0.9,0.9-1.2c0-0.3-0.7-3.1-0.7-3.1l-0.7-2.3L820.3,264.3z"/>
</svg>
