<?xml version="1.0" encoding="UTF-8"?>
<svg xmlns="http://www.w3.org/2000/svg" viewBox="482.40 241.10 121.00 107.00">
  <path fill="#52796F" d="M593.1,338.7l0.5-5.9l4.2-3.4l1.9-1v-2.9l0.7-1.6l-1.1-1.6l-2.4,0.3l-2.1-2.5l-1.7-4.5l0.9-2.6l-2-3.2   l-1.8-4.6l-4.6-0.7l-6.8-5.6l-2.2-4.2l0.8-3.3l2.2-6l0.6-3l-1.9-1l-6.9-0.6l-1.1-1.9v-4.1l-5.3-3.5l-7.2-7.8l-2.3-7.3L555,252   l0.7-2.4l-2.6-3.1l-1.2-2.4l-7.7,0.8l-10,0.6l-48.8,1.2l1.3,2.6l-0.1,2.2l2.3,3.6l3,3.9l3.1,3l2.6,0.2l1.4,1.1v2.9l-1.8,1.6   l-0.5,2.3l2.1,3.2l2.4,3l2.6,2.1l1.3,11.6l-0.8,40l0.5,5.7l23.7-0.2l23.3-0.7l32.5-1.3l2.2,3.7l-0.8,3.1l-3.1,2.5l-0.5,1.8l5.2,0.5   l4.1-1.1L593.1,338.7z"/>
</svg>
