<?xml version="1.0" encoding="UTF-8"?>
<svg xmlns="http://www.w3.org/2000/svg" viewBox="560.30 361.80 67.40 114.50">
  <path fill="#52796F" d="M604.3,472.5l2.6-4.2l1.8,0.8l6.8-1.9l2.1,0.3l1.5,0.8h5.2l0.4-1.6l-1.7-14.8l-2.8-19l1-45.1   l-0.2-16.7l0.2-6.3l-4.8,0.3l-19.6,1.6l-13,0.4l-0.2,3.2l-2.8,1.3l-2.6,5.1l0.5,1.6l0.1,2.4l-2.9,1.1l-3.5,5.1l0.8,2.3l-3,2.5   l-1,5.7l-0.6,1.9l1.6,2.5l-1.5,1.4l1.5,2.8l0.3,4.2l-1.2,2.5l-0.2,0.9l0.4,5l2,4.5l-0.1,1.7l2.3,2l-0.7,3.1l-0.9,0.3l0.6,1.9   l-8.6,15l-0.8,8.2l0.5,1.5l24.2-0.7l8.2-0.7l1.9-0.3l0.6,1.4l-1,7.1l3.3,3.3l2.2,6.4L604.3,472.5z"/>
</svg>
