<?xml version="1.0" encoding="UTF-8"?>
<svg xmlns="http://www.w3.org/2000/svg" viewBox="181.90 27.30 183.10 118.80">
  <path fill="#52796F" d="M361.1,70.8l-5.3,57.1l-1.3,15.2l-59.1-6.6l-49-7.1l-1.4,11.2l-1.9-1.7l-0.4-2.5l-1.3-1.9l-3.3,1.5   l-0.7,2.5l-2.3,0.3l-3.8-1.6l-4.1,0.1l-2.4,0.7l-3.2-1.5l-3,0.2l-2.1,1.9l-0.9-0.6l-0.7-3.4l0.7-3.2l-2.7-3.2l-3.3-2.5l-2.5-12.6   l-0.1-5.3l-1.6-0.8l-0.6,1l-4.5,3.2l-1.2-0.1l-2.3-2.8l-0.2-2.8l7-17.2l-0.6-2.7l-3.5-1.1l-0.4-0.9l-2.7-3.5l-4.6-10.4l-3.2-1.6   l-1.8-4.3l1.3-4.6l-3.2-7.6l4.4-21.3l32.7,6.9l18.4,3.4l32.3,5.3l29.3,4l29.2,3.5l30.8,3.1L361.1,70.8z"/>
</svg>
