<?xml version="1.0" encoding="UTF-8"?>
<svg xmlns="http://www.w3.org/2000/svg" viewBox="686.90 295.40 160.70 73.60">
  <path fill="#52796F" d="M786.7,357.7L774,350l-3.1-0.8l-16.6,2.1l-1.6-3l-2.8-2.2l-16.7,0.5l-7.4,0.9l-9.2,4.5l-6.8,2.7   l-6.5,1.2l-13.4,1.4l0.1-4.1l1.7-1.3l2.7-0.7l0.7-3.8l3.9-2.5l3.9-1.5l4.5-3.7l4.4-2.3l0.7-3.2l4.1-3.8l0.7,1l2.5,0.2l2.4-3.6   l1.7-0.4l2.6,0.3l1.8-4l2.5-2.4l0.5-1.8l0.1-3.5l4.4,0.1l38.5-5.6l57.5-12.3l2,4.8l3.6,6.5l2.4,2.4l0.6,2.3l-2.4,0.2l0.8,0.6   l-0.3,4.2l-2.6,1.3l-0.6,2.1l-1.3,2.9l-3.7,1.6l-2.4-0.3l-1.5-0.2l-1.6-1.3l0.3,1.3v1h1.9l0.8,1.3l-1.9,6.3h4.2l0.6,1.6l2.3-2.3   l1.3-0.5l-1.9,3.6l-3.1,4.8H828l-1.1-0.5l-2.7,0.6l-5.2,2.4l-6.5,5.3l-3.4,4.7l-1.9,6.5l-0.5,2.4l-4.7,0.5l-5.1,1.5L786.7,357.7z    M836,331.5l2.6-2.5l3.2-2.6l1.5-0.6l0.2-2l-0.6-6.1l-1.5-2.3l-0.6-1.9l0.7-0.2l2.7,5.5l0.4,4.4l-0.2,3.4l-3.4,1.5l-2.8,2.4   l-1.1,1.2L836,331.5z"/>
</svg>
