<?xml version="1.0" encoding="UTF-8"?>
<svg xmlns="http://www.w3.org/2000/svg" viewBox="660.80 192.40 78.60 88.00">
  <path fill="#52796F" d="M663.8,211.2l1.7,15.5l4.8,41.1l3.9-0.2l2.3-0.8l3.6,1.8l1.7,4.2l5.4,0.1l1.8,2h1.7l2.4-1.4l3.1,0.5   l1.5,1.3l1.8-2l2.3-1.4l2.4-0.4l0.6,2.7l1.6,1l2.6,2l0.8,0.2l2-0.1l1.2-0.6v-2.1l1.7-1.5l0.1-4.8l1.1-4.2l1.9-1.3l1,0.7l1,1.1   l0.7,0.2l0.4-0.4l-0.9-2.7v-2.2l1.1-1.4l2.5-3.6l1.3-1.5l2.2,0.5l2.1-1.5l3-3.3l2.2-3.7l0.2-5.4l0.5-5V230l-1.2-3.2l1.2-1.8   l1.3-1.2l-0.6-2.8l-4.3-25.6l-6.2,3.7l-3.9,2.3l-3.4,3.7l-4,3.9l-3.2,0.8l-2.9,0.5l-5.5,2.6l-2.1,0.2l-3.4-3.1l-5.2,0.6l-2.6-1.5   l-2.2-1.3L663.8,211.2z"/>
</svg>
