<?xml version="1.0" encoding="UTF-8"?>
<svg xmlns="http://www.w3.org/2000/svg" viewBox="354.90 318.80 155.30 84.90">
  <path fill="#52796F" d="M411.9,334.9l-1.8,24.3l-0.9,18l0.2,1.6l4,3.6l1.7,0.9h0.9l0.9-2.1l1.5,1.9l1.6,0.1l0.3-0.2l0.2-1.1   l2.8,1.4l-0.4,3.5l3.8,0.5l2.5,1l4.2,0.6l2.3,1.6l2.5-1.7l3.5,0.7l2.2,3.1l1.2,0.1v2.3l2.1,0.7l2.5-2.1l1.8,0.6l2.7,0.1l0.7,2.3   l4.4,1.8l1.7-0.3l1.9-4.2h1.3l1.1,2.1l4.2,0.8l3.4,1.3l3,0.8l1.6-0.7l0.7-2.7h4.5l1.9,0.9l2.7-1.9h1.4l0.6,1.4h3.6l2-1.8l2.3,0.6   l1.7,2.2l3,1.7l3.4,0.9l1.9,1.2l-0.3-37.6l-1.4-10.9l-0.1-8.6l-1.5-6.6l-0.6-6.8l0.1-4.3l-12.6,0.3l-46.3-0.5l-44.7-2.1l-41.5-1.8   l-0.4,10.7L411.9,334.9z"/>
</svg>
