<?xml version="1.0" encoding="UTF-8"?>
<svg xmlns="http://www.w3.org/2000/svg" viewBox="23.20 57.60 145.60 121.70">
  <path fill="#52796F" d="M67.4,158.9l28.2,7.2l27.5,6.5l17,3.7l8.8-35.1l1.2-4.4l2.4-5.5l-0.7-1.3l-2.5,0.1l-1.3-1.8l0.6-1.5   l0.4-3.3l4.7-5.7l1.9-0.9l0.9-0.8l0.7-2.7l0.8-1.1l3.9-5.7l3.7-4l0.2-3.3l-3.4-2.5l-1.2-4.6l-13.1-3.8L132.9,85l-14.8,0.4l-1.1-1.3   l-5.1,1.8l-4.5-0.5l-2.4-1.6l-1.3,0.5L99,84.1l-2-1.4l-4.8-1.8l-1.1-0.1l-4.4-1.3l-1.8,1.5l-6.3-0.2L73.3,77l0.2-9.3l-2.1-3.5   l-4.1-0.6l-0.7-2.5l-2.4-0.5l-5.8,2.1l-2.3,6.5l-3.2,10l-3.2,6.5l-5,14.1l-6.5,13.6L30.2,126l-1.9,2.9l-0.8,8.6l-1.3,6l2.7,3.5   L67.4,158.9z"/>
</svg>
