<?xml version="1.0" encoding="UTF-8"?>
<svg xmlns="http://www.w3.org/2000/svg" viewBox="556.40 525.70 66.40 22.30">
  <path fill="#52796F" d="M563.1,530.8l0.9-2.1l1.7,0.4l1.7,1.3l7.3,0.9l7.3-0.4h3l2.6,0.9l1.7-1.3h2.1l5.1,0.4l5.1,1.3l1.7,1.7  h3l0.4,2.6l-0.4,1.7l-3.4,0.4l-2.1,0.9l-0.9,2.1l-1.3,2.1l-2.6,1.3h-5.1h-4.3l-2.1-0.9l0,0h-4.3l-2.1-0.9l-3.4,0.9h-4.3l-2.1-1.7  l-2.6,0.9l-3.4,0.4l-0.4-2.1l0.9-1.3l0.9-2.1l-0.9-2.6l-3.4-2.6l1.3-0.9L563.1,530.8z M609.8,542.4l-1.9,0.6l3.7,1.2l5-1.2l1.2-1.9  l-3.1,0.6L609.8,542.4z M618.5,538.1l-1.5-0.9l2.2-1.5l0.6,1.5L618.5,538.1z"/>
</svg>
