<?xml version="1.0" encoding="UTF-8"?>
<svg xmlns="http://www.w3.org/2000/svg" viewBox="705.00 344.00 94.20 72.60">
  <path fill="#52796F" d="M759,413.6l-2.1-1L755,407l-2.5-2.3l-2.5-0.5l-1.5-4.6l-3-6.5l-4.2-1.8l-1.9-1.8l-1.2-2.6l-2.4-2   l-2.3-1.3l-2.2-2.9l-3.2-2.4l-4.4-1.7l-0.4-1.4l-2.3-2.8l-0.5-1.5l-3.8-5.4l-3.4,0.1l-3.9-2.5l-1.2-1.2l-0.2-1.4l0.6-1.6l2.7-1.3   l-0.8-2l6.4-2.7l9.2-4.5l7.1-0.9l16.4-0.5l2.3,1.9l1.8,3.5l4.6-0.8l12.6-1.5l2.7,0.8l12.5,7.4l10.1,8.3l-5.3,5.4l-2.6,6.1l-0.5,6.3   l-1.6,0.8l-1.1,2.7l-2.4,0.6l-2.1,3.6l-2.7,2.7l-2.3,3.4L774,399l-3.6,3.4l-2.9,0.2l1,3.2l-5,5.3l-2.3,1.6L759,413.6z"/>
</svg>
