<?xml version="1.0" encoding="UTF-8"?>
<svg xmlns="http://www.w3.org/2000/svg" viewBox="582.00 312.90 151.40 56.20">
  <path fill="#52796F" d="M670.8,359.6l-13.1,1.2l-23.3,2.2l-37.6,2.7l-11.8,0.4l0.9-0.6l0.9-4.5l-1.2-3.6l3.9-2.3l0.4-2.5   l1.2-4.3l3-9.5l0.5-5.6l0.3-0.2l12.3-0.2l13.6-0.8l0.1-3.9l3.5-0.1l30.4-3.3l54-5.2l10.3-1.5l7.6-0.2l2.4-1.9l1.3,0.3l-0.1,3.3   l-0.4,1.6l-2.4,2.2l-1.6,3.6l-2-0.4l-2.4,0.9l-2.2,3.3l-1.4-0.2l-0.8-1.2l-1.1,0.4l-4.3,4l-0.8,3.1l-4.2,2.2l-4.3,3.6l-3.8,1.5   l-4.4,2.8l-0.6,3.6l-2.5,0.5l-2,1.7l-0.2,4.8L670.8,359.6z"/>
</svg>
