<?xml version="1.0" encoding="UTF-8"?>
<svg xmlns="http://www.w3.org/2000/svg" viewBox="279.80 330.40 249.10 244.20">
  <path fill="#52796F" d="M282.8,425.6l37,3.6l29.3,1.9l7.4-97.7l54.4,2.4l-1.7,23.3l-1,18l0.2,2l4.4,4.1l2,1.1h1.8l0.5-1.2   l0.7,0.9l2.4,0.2l1.1-0.6v-0.2l1,0.5l-0.4,3.7l4.5,0.7l2.4,0.9l4.2,0.7l2.6,1.8l2.8-1.9l2.7,0.6l2.2,3.1l0.8,0.1v2.1l3.3,1.1   l2.5-2.1l1.5,0.5l2.1,0.1l0.6,2.1l5.2,2l2.3-0.5l1.9-4h0.1l1.1,1.9l4.6,0.9l3.4,1.3l3.2,1l2.4-1.2l0.7-2.3h3.6l2.1,1l3-2h0.4   l0.5,1.4h4.7l1.9-1.8l1.3,0.4l1.7,2.1l3.3,1.9l3.4,1l2.5,1.4l2.7,2l3.1-1.2l2.1,0.8l0.7,20l0.7,9.5l0.6,4.1l2.6,4.4l0.9,4.5   l4.2,5.9l0.3,3.1l0.6,0.8l-0.7,7.7l-2.9,4.8l1.3,2.6l-0.5,2.4l-0.8,7.2l-1.3,3l0.3,4.2l-5.6,1.6l-9.9,4.5l-1,1.9l-2.6,1.9l-2.1,1.5   l-1.3,0.8l-5.7,5.3l-2.7,2.1l-5.3,3.2l-5.7,2.4l-6.3,3.4l-1.8,1.5l-5.8,3.6l-3.4,0.6l-3.9,5.5l-4,0.3l-1,1.9l2.3,1.9l-1.5,5.5   l-1.3,4.5l-1.1,3.9l-0.8,4.5l0.8,2.4l1.8,7l1,6.1l1.8,2.7l-1,1.5l-3.1,1.9l-5.7-3.9l-5.5-1.1l-1.3,0.5l-3.2-0.6l-4.2-3.1l-5.2-1.1   l-7.6-3.4l-2.1-3.9l-1.3-6.5l-3.2-1.9l-0.6-2.3l0.6-0.6l0.3-3.4l-1.3-0.6l-0.6-1l1.3-4.4l-1.6-2.3l-3.2-1.3l-3.4-4.4l-3.6-6.6   l-4.2-2.6l0.2-1.9l-5.3-12.3l-0.8-4.2l-1.8-1.9l-0.2-1.5l-6-5.3l-2.6-3.1v-1.1l-2.6-2.1l-6.8-1.1l-7.4-0.6l-3.1-2.3l-4.5,1.8   L352,483l-2.3,3.2l-1,3.7l-4.4,6.1l-2.4,2.4l-2.6-1l-1.8-1.1l-1.9-0.6l-3.9-2.3v-0.6l-1.8-1.9l-5.2-2.1l-7.4-7.8l-2.3-4.7v-8.1   l-3.2-6.5l-0.5-2.7l-1.6-1l-1.1-2.1l-5-2.1l-1.3-1.6l-7.1-7.9l-1.3-3.2l-4.7-2.3l-1.5-4.4l-2.6-2.9l-1.7-0.5L282.8,425.6z    M457.2,567.3l-0.6-7.1l-2.7-7.2l-0.6-7l1.5-8.2l3.3-6.9l3.5-5.4l3.2-3.6l0.6,0.2l-4.8,6.6l-4.4,6.5l-2,6.6l-0.3,5.2l0.9,6.1   l2.6,7.2l0.5,5.2l0.2,1.5L457.2,567.3z"/>
</svg>
