<?xml version="1.0" encoding="UTF-8"?>
<svg xmlns="http://www.w3.org/2000/svg" viewBox="699.00 242.50 138.70 79.70">
  <path fill="#52796F" d="M834.7,265.2l-0.2,2.8l-2.9,3.8l-0.4,4.6l0.5,3.4l-1.8,5l-2.2,1.9l-1.5-4.6l0.4-5.4l1.6-4.2l0.7-3.3   l-0.1-1.7L834.7,265.2z M774.4,309.8l-38.6,5.6l-4.8-0.1l-2.2-0.3l-2.5,1.9L719,317l-10.3,1.6l-6.7,0.6l4.1-2.6l4.1-2.3v-2.1   l5.7-7.3l4.1-3.7l2.2-2.5l3.6,4.3l3.8,0.9l2.7-1l2-1.5l2.4,1.2l4.6-1.3l1.7-4.4l2.4,0.7l3.2-2.3l1.6,0.4l2.8-3.2l0.2-2.7l-0.8-1.2   l4.8-10.5l1.8-5.2l0.5-4.7l0.7-0.2l1.1,1.7l1.5,1.2l3.9-0.2l1.7-8.1l3-0.6l0.8-2.6l2.8-2.2l1.1-2.1l1.8-4.3l0.1-4.6l3.6,1.4   l6.6,3.1l0.3-5.2l3.4,1.2l-0.6,2.9l8.6,3.1l1.4,1.8l-0.8,3.3l-1.3,1.3l-0.5,1.7l0.5,2.4l2,1.3l3.9,1.4l2.9,1l4.9,0.9l2.2,2.1   l3.2,0.4l0.9,1.2l-0.4,4.7l1.4,1.1l-0.5,1.9l1.2,0.8l-0.2,1.4l-2.7-0.1l0.1,1.6l2.3,1.5l0.1,1.4l1.8,1.8l0.5,2.5l-2.6,1.4l1.6,1.5   l5.8-1.7l3.7,6.2L774.4,309.8z"/>
</svg>
