<?xml version="1.0" encoding="UTF-8"?>
<svg xmlns="http://www.w3.org/2000/svg" viewBox="645.70 520.60 35.30 34.30">
  <path fill="#52796F" d="M652,524.3l-1.5,1.1l-1.8,1.1l0.4,1.5l1.8,0.7l2.6-0.4l1.1,1.8h1.8l1.1-1.1l4-0.7l1.8-0.4l1.5-1.1  l-0.7-1.5h-2.2l-5.1-1.1H652z M666.4,525.7l-0.3,1l0.9,0.5l2-0.2l1.4,0.7l1.1-0.2l0.3-1.2l0,0l1.4-1l0.3-1l-1.1-0.5l-1.7,0.5l-2-0.7  l-0.9,0.7l-0.3,1L666.4,525.7z M661.1,546.1l2.6-0.7l1.6,0.3l2.3-1.3l1,0.3l0.6,1l1,1.6l2-1l1,0.7l4.3-0.6l0.5,2.4l-1.8,0.8h-3.3  l-5.5,1.6L665,551l-3.9,0.6l-1.3-0.6l-1,0.6l-2.6,0.3c0,0-1.5-0.5-0.3-1.3c2-1.3,1-3.6,1-3.6L661.1,546.1z"/>
</svg>
