<?xml version="1.0" encoding="UTF-8"?>
<svg xmlns="http://www.w3.org/2000/svg" viewBox="526.40 100.90 97.40 102.10">
  <path fill="#52796F" d="M541.4,109.9l2.9,0.5l2.9-0.6l7.4-3.2l2.9-1.9l2.1-0.8l1.9,1.5l-1.1,1.1l-1.9,3.1l-0.6,1.9l1,0.6   l1.8-1l1.1-0.2l2.7,0.8l0.6,1.1l1.1,0.2l0.6-1.1l4,5.3l8.2,1.2l8.2,2.2l2.6,1.1l12.3,2.6l1.6,2.3l3.6,1.2L609,138l1.6,1.4l1.5,0.9   l-1.1,2.3l-1.8,1.6l-2.1,4.7l-1.3,2.4l0.2,1.8l1.5,0.3l1.1-1.9l1.5-0.8l0.8-2.3l1.9-1.8l2.7-4l4.2-6.3l0.8-0.5l0.3,1l-0.2,2.3   l-2.9,6.8l-2.7,5.7l-0.5,3.2l-0.6,2.6l0.8,1.3l-0.2,2.7l-1.9,2.4l-0.5,1.8l0.6,3.6l0.6,3.4l-1.5,2.6l-0.8,2.9l-1,3.1l1.1,2.4   l0.6,6.1l1.6,4.5l-0.2,3l-15.9,1.8l-17.5,1H567l-0.7-1.5l-2.9-0.4l-2.6-1.3l-2.3-3.7l-0.3-3.6l2-2.9l-0.5-1.4l-2.1-2.2l-0.8-3.3   l-0.6-6.8l-2.1-2.5l-7-4.5l-3.8-5.4l-3.4-1l-2.2-2.8h-3.2l-2.9-3.3l-0.5-6.5l0.1-3.8l1.5-3.1l-0.8-3.2l-2.5-2.8l1.8-5.4l5.2-3.8   l1.6-1.9l-0.2-8.1l0.2-2.8l2.4-2.8L541.4,109.9z"/>
</svg>
