<?xml version="1.0" encoding="UTF-8"?>
<svg xmlns="http://www.w3.org/2000/svg" viewBox="706.50 221.90 84.10 84.00">
  <path fill="#52796F" d="M758.9,254.3l5.8-6l2.6-0.8l1.6-1.5l1.5-2.2l1.1,0.3l3.1-0.2l4.6-3.6l1.5-0.5l1.3,1l2.6,1.2l3,3   l-0.4,4.3l-5.4-2.6l-4.8-1.8l-0.1,5.9l-2.6,5.7l-2.9,2.4l-0.8,2.3l-3,0.5l-1.7,8.1l-2.8,0.2l-1.1-1l-1.2-2l-2.2,0.5l-0.5,5.1   l-1.8,5.1l-5,11l0.9,1.4l-0.1,2l-2.2,2.5l-1.6-0.4l-3.1,2.3l-2.8-0.8l-1.8,4.9l-3.8,1l-2.5-1.3l-2.5,1.9l-2.3,0.7l-3.2-0.8   l-3.8-4.5l-3.5-2.2l-2.5-2.5l-2.9-3.7l-0.5-2.3l-2.8-1.7l-0.6-1.3l-0.2-5.6l0.3,0.1l2.4-0.2l1.8-1V275l1.7-1.5l0.1-5.2l0.9-3.6   l1.1-0.7l0.4,0.3l1,1.1l1.7,0.5l1.1-1.3l-1-3.1v-1.6l3.1-4.6l1.2-1.3l2,0.5l2.6-1.8l3.1-3.4l2.4-4.1l0.2-5.6l0.5-4.8v-4.9l-1.1-3   l0.9-1.3l0.8-0.7l4.3,19.3l4.3-0.8l11.2-1.3L758.9,254.3z"/>
</svg>
